{"title":"Mikio Naruse - Bara.Kassen.AKA.Battle.of.Roses.1950.DVDRip.x264","uid":8635752,"size":1612390019,"categoryP":"video","categoryS":"movies","magnet":"?xt=urn:btih:d1d6b7ff022743e0ef33219bd8a38aa2015f547d&amp;dn=Mikio+Naruse+-+Bara.Kassen.AKA.Battle.of.Roses.1950.DVDRip.x264&amp;tr=udp%3A%2F%2Ftracker.openbittorrent.com%3A80&amp;tr=udp%3A%2F%2Fopen.demonii.com%3A1337&amp;tr=udp%3A%2F%2Ftracker.coppersurfer.tk%3A6969&amp;tr=udp%3A%2F%2Fexodus.desync.com%3A6969","seeders":1,"leechers":0,"uploader":"rpessoa","files":1,"time":1372738703,"description":"Kuniko Miyake (a perennial supporting actress in Ozu) inherits the reins of a cosmetics company after her husband dies. She and her younger sisters (Setsuko Wakayama and Yoko Katsuragi) initially live together. The two younger sisters are both smitten by Koji Tsuruta, but settle for less rewarding spouses. The older sister also remarries. All three then proceed to disentangle themselves from their improvident matches. One of the sisters winds up with our hero (I think), while the other moves back in with her big sister. Despite an excellent cast, the script is pretty dull -- and most visuals are simply functional. (Michael Kerpan, at Criterionforum)\n\nSubs: English, Portuguese\n &lt;a href=&quot;\nhttp://www.imdb.com/title/tt0042226/&quot; rel=&quot;nofollow&quot; target=&quot;_NEW&quot;&gt;\nhttp://www.imdb.com/title/tt0042226/&lt;/a&gt;\n\nGeneral\nComplete name                            : Bara.Kassen.AKA.Battle.of.Roses.1950.DVDRip.x264.mkv\nFormat                                   : Matroska\nFormat version                           : Version 2\nFile size                                : 1.50 GiB\nDuration                                 : 1h 38mn\nOverall bit rate                         : 2 186 Kbps\nEncoded date                             : UTC 2013-07-01 15:41:10\nWriting application                      : mkvmerge v5.8.0 ('No Sleep / Pillow') built on Sep  2 2012 15:37:04\nWriting library                          : libebml v1.2.3 + libmatroska v1.3.0\nVideo\nID                                       : 1\nFormat                                   : AVC\nFormat/Info                              : Advanced Video Codec\nFormat profile                           : &lt;a class=&quot;__cf_email__&quot; href=&quot;/cdn-cgi/l/email-protection&quot; data-cfemail=&quot;cf87a6a8a78f83fce1fe&quot;&gt;[email&amp;#160;protected]&lt;/a&gt;&lt;script cf-hash='f9e31' type=&quot;text/javascript&quot;&gt;\n/* &lt;![CDATA[ */!function(){try{var t=&quot;currentScript&quot;in document?document.currentScript:function(){for(var t=document.getElementsByTagName(&quot;script&quot;),e=t.length;e--;)if(t[e].getAttribute(&quot;cf-hash&quot;))return t[e]}();if(t&amp;&amp;t.previousSibling){var e,r,n,i,c=t.previousSibling,a=c.getAttribute(&quot;data-cfemail&quot;);if(a){for(e=&quot;&quot;,r=parseInt(a.substr(0,2),16),n=2;a.length-n;n+=2)i=parseInt(a.substr(n,2),16)^r,e+=String.fromCharCode(i);e=document.createTextNode(e),c.parentNode.replaceChild(e,c)}}}catch(u){}}();/* ]]&gt; */&lt;/script&gt;\nFormat settings, CABAC                   : Yes\nFormat settings, ReFrames                : 11 frames\nCodec ID                                 : V_MPEG4/ISO/AVC\nDuration                                 : 1h 38mn\nBit rate                                 : 1 951 Kbps\nWidth                                    : 700 pixels\nHeight                                   : 480 pixels\nDisplay aspect ratio                     : 1.296\nFrame rate                               : 23.976 fps\nColor space                              : YUV\nChroma subsampling                       : 4:2:0\nBit depth                                : 8 bits\nScan type                                : Progressive\nBits/(Pixel*Frame)                       : 0.242\nStream size                              : 1.34 GiB (89%)\nWriting library                          : x264 core 133 r2334 a3ac64b\nEncoding settings                        : cabac=1 / ref=11 / deblock=1:-3:-3 / analyse=0x3:0x133 / me=umh / subme=11 / psy=1 / psy_rd=1.20:0.00 / mixed_ref=1 / me_range=32 / chroma_me=1 / trellis=2 / 8x8dct=1 / cqm=0 / deadzone=21,11 / fast_pskip=0 / chroma_qp_offset=-2 / threads=12 / lookahead_threads=3 / sliced_threads=0 / nr=0 / decimate=1 / interlaced=0 / bluray_compat=0 / constrained_intra=0 / bframes=16 / b_pyramid=2 / b_adapt=2 / b_bias=0 / direct=3 / weightb=1 / open_gop=0 / weightp=2 / keyint=250 / keyint_min=23 / scenecut=40 / intra_refresh=0 / rc_lookahead=60 / rc=crf / mbtree=1 / crf=21.4 / qcomp=0.66 / qpmin=0 / qpmax=69 / qpstep=4 / ip_ratio=1.40 / aq=2:0.80\nLanguage                                 : English\nDefault                                  : Yes\nForced                                   : No\nAudio\nID                                       : 2\nFormat                                   : AC-3\nFormat/Info                              : Audio Coding 3\nMode extension                           : CM (complete main)\nCodec ID                                 : A_AC3\nDuration                                 : 1h 38mn\nBit rate mode                            : Constant\nBit rate                                 : 192 Kbps\nChannel(s)                               : 2 channels\nChannel positions                        : Front: L R\nSampling rate                            : 48.0 KHz\nBit depth                                : 16 bits\nCompression mode                         : Lossy\nStream size                              : 135 MiB (9%)\nLanguage                                 : Japanese\nDefault                                  : Yes\nForced                                   : No\nText #1\nID                                       : 3\nFormat                                   : UTF-8\nCodec ID                                 : S_TEXT/UTF8\nCodec ID/Info                            : UTF-8 Plain Text\nLanguage                                 : Portuguese\nDefault                                  : Yes\nForced                                   : No\nText #2\nID                                       : 4\nFormat                                   : UTF-8\nCodec ID                                 : S_TEXT/UTF8\nCodec ID/Info                            : UTF-8 Plain Text\nLanguage                                 : English\nDefault                                  : No\nForced                                   : No\nMenu\n00:00:00.000                             : en:Chapter 1\n00:01:35.333                             : en:Chapter 2\n00:05:58.700                             : en:Chapter 3\n00:13:24.634                             : en:Chapter 4\n00:25:51.134                             : en:Chapter 5\n00:33:40.501                             : en:Chapter 6\n00:40:50.934                             : en:Chapter 7\n00:50:23.200                             : en:Chapter 8\n01:03:02.733                             : en:Chapter 9\n01:07:49.799                             : en:Chapter 10\n01:15:12.332                             : en:Chapter 11\n01:25:00.498                             : en:Chapter 12\n\nMy rip.","torrent":{"xt":"urn:btih:d1d6b7ff022743e0ef33219bd8a38aa2015f547d","amp;dn":"Mikio+Naruse+-+Bara.Kassen.AKA.Battle.of.Roses.1950.DVDRip.x264","amp;tr":["udp%3A%2F%2Ftracker.openbittorrent.com%3A80","udp%3A%2F%2Fopen.demonii.com%3A1337","udp%3A%2F%2Ftracker.coppersurfer.tk%3A6969","udp%3A%2F%2Fexodus.desync.com%3A6969"],"infoHash":"d1d6b7ff022743e0ef33219bd8a38aa2015f547d","infoHashBuffer":{"type":"Buffer","data":[209,214,183,255,2,39,67,224,239,51,33,155,216,163,138,162,1,95,84,125]},"announce":[],"urlList":[]}}